<svg width="97" height="74" viewBox="0 0 97 74" fill="none" xmlns="http://www.w3.org/2000/svg">
<ellipse cx="26.9686" cy="40.2439" rx="26.9686" ry="40.2439" transform="matrix(0.358972 -0.933348 0.955827 0.293931 0 50.3423)" fill="#7F48DD"/>
<path d="M24.6717 43.747C24.3333 43.747 24.0483 43.6436 23.8168 43.4369C23.5853 43.2301 23.4695 42.9757 23.4695 42.6735V28.4322C23.4695 28.0029 23.6387 27.6371 23.9771 27.3349C24.3155 27.0169 24.7251 26.8578 25.2059 26.8578H26.0875C26.4437 26.8578 26.7643 26.9533 27.0492 27.1441C27.352 27.3349 27.5746 27.5735 27.7171 27.8597L33.7811 41.3615L39.8452 27.8597C39.9877 27.5735 40.2014 27.3349 40.4863 27.1441C40.7891 26.9533 41.1185 26.8578 41.4747 26.8578H42.3563C42.8371 26.8578 43.2468 27.0169 43.5851 27.3349C43.9235 27.6371 44.0927 28.0029 44.0927 28.4322V42.6735C44.0927 42.9757 43.9769 43.2301 43.7454 43.4369C43.5139 43.6436 43.2289 43.747 42.8906 43.747C42.5522 43.747 42.2583 43.6436 42.009 43.4369C41.7775 43.2301 41.6617 42.9757 41.6617 42.6735V29.124L35.4908 42.7451C35.3483 43.0472 35.1168 43.2937 34.7962 43.4846C34.4935 43.6595 34.1551 43.747 33.7811 43.747C33.4071 43.747 33.0598 43.6595 32.7393 43.4846C32.4365 43.2937 32.2139 43.0472 32.0714 42.7451L25.9005 29.124V42.6735C25.9005 42.9757 25.7758 43.2301 25.5265 43.4369C25.295 43.6436 25.01 43.747 24.6717 43.747Z" fill="white"/>
<path d="M49.6774 28.9809C49.3034 28.9809 48.9828 28.8616 48.7157 28.6231C48.4485 28.3845 48.315 28.0983 48.315 27.7643V27.6689C48.315 27.3349 48.4485 27.0487 48.7157 26.8101C48.9828 26.5716 49.3034 26.4523 49.6774 26.4523H49.8376C50.2116 26.4523 50.5322 26.5716 50.7994 26.8101C51.0665 27.0487 51.2001 27.3349 51.2001 27.6689V27.7643C51.2001 28.0983 51.0665 28.3845 50.7994 28.6231C50.5322 28.8616 50.2116 28.9809 49.8376 28.9809H49.6774ZM49.7308 43.747C49.3924 43.747 49.1075 43.6436 48.8759 43.4369C48.6444 43.2301 48.5287 42.9757 48.5287 42.6735V32.4398C48.5287 32.1377 48.6444 31.8832 48.8759 31.6765C49.1075 31.4538 49.3924 31.3425 49.7308 31.3425C50.087 31.3425 50.3808 31.4459 50.6124 31.6526C50.8439 31.8594 50.9596 32.1218 50.9596 32.4398V42.6735C50.9596 42.9757 50.835 43.2301 50.5856 43.4369C50.3541 43.6436 50.0692 43.747 49.7308 43.747Z" fill="white"/>
<path d="M56.3832 43.747C56.0448 43.747 55.7599 43.6436 55.5283 43.4369C55.2968 43.2301 55.1811 42.9757 55.1811 42.6735V27.1918C55.1811 26.8896 55.2968 26.6352 55.5283 26.4284C55.7599 26.2058 56.0448 26.0945 56.3832 26.0945C56.7394 26.0945 57.0332 26.1979 57.2647 26.4046C57.4963 26.6113 57.612 26.8737 57.612 27.1918V42.6735C57.612 42.9757 57.4874 43.2301 57.238 43.4369C57.0065 43.6436 56.7216 43.747 56.3832 43.747Z" fill="white"/>
<path d="M65.3063 43.8662C64.5227 43.8662 63.7925 43.7231 63.1157 43.4369C62.4568 43.1506 61.9314 42.7371 61.5396 42.1964C61.1478 41.6398 60.9519 41.0037 60.9519 40.288C60.9519 39.1112 61.4684 38.1729 62.5013 37.4732C63.552 36.7734 65.0836 36.4236 67.0961 36.4236H70.3285V36.2327C70.3285 35.1831 70.0346 34.4277 69.4469 33.9665C68.877 33.5053 67.9777 33.2748 66.7488 33.2748C66.0721 33.2748 65.4665 33.3225 64.9323 33.4179C64.4158 33.5133 63.837 33.6564 63.1959 33.8473C63.0534 33.8791 62.9376 33.895 62.8486 33.895C62.5814 33.895 62.3499 33.8075 62.154 33.6326C61.9581 33.4576 61.8602 33.2429 61.8602 32.9885C61.8602 32.5591 62.0917 32.257 62.5547 32.082C64.0685 31.5095 65.609 31.2232 67.1762 31.2232C68.4051 31.2232 69.438 31.4459 70.2751 31.8912C71.1299 32.3365 71.7532 32.9169 72.145 33.6326C72.5546 34.3323 72.7595 35.0957 72.7595 35.9226V42.6735C72.7595 42.9757 72.6348 43.2301 72.3855 43.4369C72.1539 43.6436 71.869 43.747 71.5306 43.747C71.1922 43.747 70.9073 43.6436 70.6758 43.4369C70.4442 43.2301 70.3285 42.9757 70.3285 42.6735V42.0533C69.0106 43.2619 67.3365 43.8662 65.3063 43.8662ZM66.2145 41.9579C66.9981 41.9579 67.755 41.7909 68.4852 41.4569C69.2154 41.1071 69.8298 40.6777 70.3285 40.1688V38.165H67.4167C64.7275 38.165 63.3829 38.7931 63.3829 40.0495C63.3829 40.622 63.5966 41.0832 64.024 41.4331C64.4692 41.7829 65.1994 41.9579 66.2145 41.9579Z" fill="white"/>
</svg>
